<svg height="30" viewBox="0 0 204 61" fill="none" xmlns="http://www.w3.org/2000/svg">
<rect width="204" height="61" rx="12" fill="#E310CB"/>
<path d="M14.824 43.072C14.248 43.072 13.828 43 13.564 42.856C13.3 42.688 13.168 42.46 13.168 42.172V18.628C13.168 18.34 13.3 18.124 13.564 17.98C13.828 17.812 14.248 17.728 14.824 17.728H16.264C16.816 17.728 17.26 17.788 17.596 17.908C17.932 18.028 18.172 18.232 18.316 18.52L24.292 29.896C24.46 30.208 24.628 30.568 24.796 30.976C24.988 31.36 25.132 31.72 25.228 32.056C25.348 31.696 25.516 31.312 25.732 30.904C25.948 30.472 26.128 30.112 26.272 29.824L32.176 18.52C32.344 18.232 32.584 18.028 32.896 17.908C33.208 17.788 33.628 17.728 34.156 17.728H35.524C36.124 17.728 36.544 17.812 36.784 17.98C37.048 18.124 37.18 18.34 37.18 18.628V42.172C37.18 42.46 37.048 42.688 36.784 42.856C36.544 43 36.124 43.072 35.524 43.072H35.056C34.48 43.072 34.06 43 33.796 42.856C33.532 42.688 33.4 42.46 33.4 42.172V26.08C33.4 25.744 33.4 25.42 33.4 25.108C33.4 24.772 33.4 24.448 33.4 24.136L33.256 24.1C33.136 24.388 33.004 24.664 32.86 24.928C32.716 25.168 32.584 25.42 32.464 25.684L27.352 35.476C27.184 35.788 26.968 36.004 26.704 36.124C26.44 36.22 26.056 36.268 25.552 36.268H24.904C24.4 36.268 24.016 36.22 23.752 36.124C23.488 36.004 23.26 35.788 23.068 35.476L17.884 25.504C17.764 25.264 17.632 25.012 17.488 24.748C17.344 24.484 17.212 24.22 17.092 23.956L16.948 23.992C16.948 24.304 16.948 24.628 16.948 24.964C16.948 25.276 16.948 25.588 16.948 25.9V42.172C16.948 42.46 16.816 42.688 16.552 42.856C16.312 43 15.892 43.072 15.292 43.072H14.824ZM45.8838 50.452C45.4038 50.452 45.0318 50.392 44.7678 50.272C44.5278 50.176 44.4078 50.032 44.4078 49.84C44.4078 49.768 44.4198 49.696 44.4438 49.624C44.4678 49.552 44.5158 49.42 44.5878 49.228L47.9358 40.912L47.7558 43.72L41.0958 25.288C41.0718 25.216 41.0358 25.132 40.9878 25.036C40.9638 24.94 40.9518 24.844 40.9518 24.748C40.9518 24.556 41.0958 24.4 41.3838 24.28C41.6718 24.16 42.1038 24.1 42.6798 24.1H43.1838C43.5918 24.1 43.9398 24.148 44.2278 24.244C44.5158 24.34 44.6958 24.496 44.7678 24.712L49.0878 37.996H49.2318L53.6238 24.712C53.7198 24.496 53.9118 24.34 54.1998 24.244C54.4878 24.148 54.8478 24.1 55.2798 24.1H55.6038C56.1798 24.1 56.5878 24.16 56.8278 24.28C57.0678 24.4 57.1878 24.556 57.1878 24.748C57.1878 24.844 57.1758 24.94 57.1518 25.036C57.1518 25.108 57.1278 25.204 57.0798 25.324L48.0438 49.696C47.9478 49.984 47.7438 50.176 47.4318 50.272C47.1198 50.392 46.7358 50.452 46.2798 50.452H45.8838ZM74.8883 43.072C74.4323 43.072 74.0723 43.012 73.8083 42.892C73.5443 42.772 73.3763 42.568 73.3043 42.28L66.8243 18.952C66.8003 18.856 66.7763 18.76 66.7523 18.664C66.7283 18.568 66.7163 18.472 66.7163 18.376C66.7163 18.184 66.8363 18.028 67.0763 17.908C67.3403 17.788 67.7363 17.728 68.2643 17.728H68.9843C69.3923 17.728 69.7403 17.776 70.0283 17.872C70.3403 17.944 70.5323 18.124 70.6043 18.412L75.6083 39.076H75.7523L80.4323 18.592C80.5043 18.256 80.6843 18.028 80.9723 17.908C81.2603 17.788 81.6323 17.728 82.0883 17.728H83.2043C83.6603 17.728 84.0443 17.8 84.3563 17.944C84.6923 18.064 84.8963 18.28 84.9683 18.592L89.6843 39.076H89.8283L94.8323 18.412C94.8803 18.148 95.0483 17.968 95.3363 17.872C95.6243 17.776 95.9603 17.728 96.3443 17.728H97.0283C97.6043 17.728 98.0243 17.788 98.2883 17.908C98.5523 18.028 98.6843 18.184 98.6843 18.376C98.6843 18.472 98.6723 18.568 98.6483 18.664C98.6243 18.76 98.6003 18.856 98.5763 18.952L92.0963 42.28C92.0243 42.568 91.8563 42.772 91.5923 42.892C91.3283 43.012 90.9563 43.072 90.4763 43.072H89.0003C88.5443 43.072 88.1603 43.012 87.8483 42.892C87.5603 42.772 87.3803 42.568 87.3083 42.28L82.7363 22.696H82.5923L78.0923 42.28C78.0443 42.568 77.8643 42.772 77.5523 42.892C77.2403 43.012 76.8563 43.072 76.4003 43.072H74.8883ZM108.301 43.252C105.397 43.252 103.201 42.484 101.713 40.948C100.225 39.412 99.4805 36.988 99.4805 33.676C99.4805 31.516 99.8165 29.716 100.489 28.276C101.185 26.836 102.169 25.756 103.441 25.036C104.713 24.292 106.237 23.92 108.013 23.92C109.717 23.92 111.121 24.304 112.225 25.072C113.329 25.816 114.145 26.884 114.673 28.276C115.201 29.668 115.465 31.312 115.465 33.208C115.465 33.448 115.393 33.712 115.249 34C115.105 34.264 114.913 34.492 114.673 34.684C114.457 34.876 114.229 34.972 113.989 34.972H103.333C103.381 36.796 103.825 38.128 104.665 38.968C105.529 39.784 106.777 40.192 108.409 40.192C109.465 40.192 110.365 40.06 111.109 39.796C111.877 39.532 112.489 39.28 112.945 39.04C113.425 38.8 113.737 38.68 113.881 38.68C114.073 38.68 114.253 38.8 114.421 39.04C114.589 39.28 114.721 39.568 114.817 39.904C114.937 40.216 114.997 40.468 114.997 40.66C114.997 40.924 114.805 41.2 114.421 41.488C114.037 41.776 113.521 42.064 112.873 42.352C112.249 42.616 111.541 42.832 110.749 43C109.957 43.168 109.141 43.252 108.301 43.252ZM103.297 32.092H111.793C111.793 30.388 111.445 29.116 110.749 28.276C110.053 27.412 109.045 26.98 107.725 26.98C106.837 26.98 106.069 27.172 105.421 27.556C104.773 27.94 104.257 28.504 103.873 29.248C103.513 29.992 103.321 30.94 103.297 32.092ZM128.823 43.252C127.815 43.252 126.843 43.024 125.907 42.568C124.971 42.088 124.155 41.416 123.459 40.552C123.435 40.816 123.387 41.092 123.315 41.38C123.243 41.668 123.171 41.956 123.099 42.244C122.979 42.58 122.799 42.808 122.559 42.928C122.319 43.024 122.031 43.072 121.695 43.072H121.443C120.915 43.072 120.531 43 120.291 42.856C120.075 42.688 119.967 42.46 119.967 42.172V16.828C119.967 16.516 120.087 16.288 120.327 16.144C120.567 15.976 120.987 15.892 121.587 15.892H122.091C122.691 15.892 123.111 15.976 123.351 16.144C123.591 16.288 123.711 16.516 123.711 16.828V25.576C124.119 25.264 124.551 24.988 125.007 24.748C125.463 24.484 125.967 24.28 126.519 24.136C127.071 23.992 127.683 23.92 128.355 23.92C130.587 23.92 132.363 24.76 133.683 26.44C135.027 28.12 135.699 30.496 135.699 33.568C135.699 35.512 135.411 37.216 134.835 38.68C134.283 40.12 133.491 41.248 132.459 42.064C131.427 42.856 130.215 43.252 128.823 43.252ZM127.995 40.156C129.243 40.156 130.191 39.58 130.839 38.428C131.511 37.252 131.847 35.572 131.847 33.388C131.847 31.324 131.487 29.74 130.767 28.636C130.071 27.532 128.991 26.98 127.527 26.98C126.831 26.98 126.147 27.112 125.475 27.376C124.827 27.616 124.239 27.952 123.711 28.384V37.744C124.335 38.488 125.007 39.076 125.727 39.508C126.471 39.94 127.227 40.156 127.995 40.156ZM144.639 43.324C143.871 43.324 143.139 43.252 142.443 43.108C141.747 42.964 141.123 42.772 140.571 42.532C140.043 42.292 139.623 42.04 139.311 41.776C138.999 41.512 138.843 41.248 138.843 40.984C138.843 40.792 138.927 40.54 139.095 40.228C139.263 39.892 139.455 39.592 139.671 39.328C139.887 39.04 140.091 38.896 140.283 38.896C140.403 38.896 140.631 39.016 140.967 39.256C141.303 39.472 141.759 39.688 142.335 39.904C142.911 40.12 143.583 40.228 144.351 40.228C145.383 40.228 146.163 40.036 146.691 39.652C147.219 39.244 147.483 38.656 147.483 37.888C147.483 37.336 147.339 36.88 147.051 36.52C146.763 36.16 146.355 35.86 145.827 35.62C145.323 35.38 144.747 35.152 144.099 34.936C143.523 34.72 142.947 34.48 142.371 34.216C141.795 33.952 141.267 33.616 140.787 33.208C140.331 32.8 139.959 32.284 139.671 31.66C139.407 31.036 139.275 30.256 139.275 29.32C139.275 28.24 139.527 27.292 140.031 26.476C140.559 25.66 141.279 25.036 142.191 24.604C143.127 24.148 144.195 23.92 145.395 23.92C145.995 23.92 146.583 23.956 147.159 24.028C147.735 24.1 148.263 24.22 148.743 24.388C149.223 24.532 149.607 24.712 149.895 24.928C150.207 25.144 150.363 25.372 150.363 25.612C150.363 25.828 150.291 26.116 150.147 26.476C150.003 26.812 149.835 27.124 149.643 27.412C149.451 27.676 149.259 27.808 149.067 27.808C148.947 27.808 148.611 27.664 148.059 27.376C147.531 27.088 146.787 26.944 145.827 26.944C145.011 26.944 144.327 27.124 143.775 27.484C143.247 27.82 142.983 28.336 142.983 29.032C142.983 29.464 143.079 29.836 143.271 30.148C143.463 30.436 143.775 30.7 144.207 30.94C144.639 31.156 145.191 31.384 145.863 31.624C146.559 31.864 147.231 32.14 147.879 32.452C148.527 32.764 149.103 33.148 149.607 33.604C150.111 34.036 150.495 34.576 150.759 35.224C151.047 35.872 151.191 36.64 151.191 37.528C151.191 38.656 150.915 39.652 150.363 40.516C149.811 41.38 149.043 42.064 148.059 42.568C147.075 43.072 145.935 43.324 144.639 43.324ZM156.954 43.072C156.354 43.072 155.934 43 155.694 42.856C155.454 42.688 155.334 42.46 155.334 42.172V25C155.334 24.712 155.454 24.496 155.694 24.352C155.934 24.184 156.354 24.1 156.954 24.1H157.458C158.058 24.1 158.478 24.184 158.718 24.352C158.958 24.496 159.078 24.712 159.078 25V42.172C159.078 42.46 158.958 42.688 158.718 42.856C158.478 43 158.058 43.072 157.458 43.072H156.954ZM157.206 21.796C156.51 21.796 156.018 21.724 155.73 21.58C155.442 21.412 155.298 21.184 155.298 20.896V18.556C155.298 18.268 155.442 18.052 155.73 17.908C156.018 17.74 156.51 17.656 157.206 17.656C157.878 17.656 158.358 17.74 158.646 17.908C158.934 18.052 159.078 18.268 159.078 18.556V20.896C159.078 21.184 158.934 21.412 158.646 21.58C158.358 21.724 157.878 21.796 157.206 21.796ZM170.117 43.252C169.109 43.252 168.257 43.06 167.561 42.676C166.889 42.292 166.385 41.74 166.049 41.02C165.713 40.276 165.545 39.364 165.545 38.284V27.232H163.925C163.373 27.232 163.097 26.8 163.097 25.936V25.468C163.097 24.604 163.373 24.172 163.925 24.172H165.545L166.013 20.5C166.061 20.188 166.193 19.96 166.409 19.816C166.625 19.672 166.937 19.6 167.345 19.6H167.885C168.389 19.6 168.749 19.672 168.965 19.816C169.181 19.96 169.289 20.188 169.289 20.5V24.172H172.097C172.649 24.172 172.925 24.604 172.925 25.468V25.936C172.925 26.8 172.649 27.232 172.097 27.232H169.289V38.212C169.289 38.908 169.397 39.4 169.613 39.688C169.853 39.976 170.261 40.12 170.837 40.12C171.365 40.12 171.737 40.06 171.953 39.94C172.193 39.82 172.397 39.76 172.565 39.76C172.709 39.76 172.817 39.856 172.889 40.048C172.985 40.216 173.057 40.432 173.105 40.696C173.177 40.936 173.213 41.176 173.213 41.416C173.237 41.632 173.249 41.788 173.249 41.884C173.249 42.148 173.069 42.388 172.709 42.604C172.373 42.796 171.965 42.952 171.485 43.072C171.005 43.192 170.549 43.252 170.117 43.252ZM184.554 43.252C181.65 43.252 179.454 42.484 177.966 40.948C176.478 39.412 175.734 36.988 175.734 33.676C175.734 31.516 176.07 29.716 176.742 28.276C177.438 26.836 178.422 25.756 179.694 25.036C180.966 24.292 182.49 23.92 184.266 23.92C185.97 23.92 187.374 24.304 188.478 25.072C189.582 25.816 190.398 26.884 190.926 28.276C191.454 29.668 191.718 31.312 191.718 33.208C191.718 33.448 191.646 33.712 191.502 34C191.358 34.264 191.166 34.492 190.926 34.684C190.71 34.876 190.482 34.972 190.242 34.972H179.586C179.634 36.796 180.078 38.128 180.918 38.968C181.782 39.784 183.03 40.192 184.662 40.192C185.718 40.192 186.618 40.06 187.362 39.796C188.13 39.532 188.742 39.28 189.198 39.04C189.678 38.8 189.99 38.68 190.134 38.68C190.326 38.68 190.506 38.8 190.674 39.04C190.842 39.28 190.974 39.568 191.07 39.904C191.19 40.216 191.25 40.468 191.25 40.66C191.25 40.924 191.058 41.2 190.674 41.488C190.29 41.776 189.774 42.064 189.126 42.352C188.502 42.616 187.794 42.832 187.002 43C186.21 43.168 185.394 43.252 184.554 43.252ZM179.55 32.092H188.046C188.046 30.388 187.698 29.116 187.002 28.276C186.306 27.412 185.298 26.98 183.978 26.98C183.09 26.98 182.322 27.172 181.674 27.556C181.026 27.94 180.51 28.504 180.126 29.248C179.766 29.992 179.574 30.94 179.55 32.092Z" fill="white"/>
</svg>
