<svg height="100" viewBox="0 0 244 66" fill="none" xmlns="http://www.w3.org/2000/svg">
<rect width="244" height="66" rx="12" fill="#E310CB"/>
<path d="M25.36 47.08C24.72 47.08 24.2533 47 23.96 46.84C23.6667 46.6533 23.52 46.4 23.52 46.08V19.92C23.52 19.6 23.6667 19.36 23.96 19.2C24.2533 19.0133 24.72 18.92 25.36 18.92H26.96C27.5733 18.92 28.0667 18.9867 28.44 19.12C28.8133 19.2533 29.08 19.48 29.24 19.8L35.88 32.44C36.0667 32.7867 36.2533 33.1867 36.44 33.64C36.6533 34.0667 36.8133 34.4667 36.92 34.84C37.0533 34.44 37.24 34.0133 37.48 33.56C37.72 33.08 37.92 32.68 38.08 32.36L44.64 19.8C44.8267 19.48 45.0933 19.2533 45.44 19.12C45.7867 18.9867 46.2533 18.92 46.84 18.92H48.36C49.0267 18.92 49.4933 19.0133 49.76 19.2C50.0533 19.36 50.2 19.6 50.2 19.92V46.08C50.2 46.4 50.0533 46.6533 49.76 46.84C49.4933 47 49.0267 47.08 48.36 47.08H47.84C47.2 47.08 46.7333 47 46.44 46.84C46.1467 46.6533 46 46.4 46 46.08V28.2C46 27.8267 46 27.4667 46 27.12C46 26.7467 46 26.3867 46 26.04L45.84 26C45.7067 26.32 45.56 26.6267 45.4 26.92C45.24 27.1867 45.0933 27.4667 44.96 27.76L39.28 38.64C39.0933 38.9867 38.8533 39.2267 38.56 39.36C38.2667 39.4667 37.84 39.52 37.28 39.52H36.56C36 39.52 35.5733 39.4667 35.28 39.36C34.9867 39.2267 34.7333 38.9867 34.52 38.64L28.76 27.56C28.6267 27.2933 28.48 27.0133 28.32 26.72C28.16 26.4267 28.0133 26.1333 27.88 25.84L27.72 25.88C27.72 26.2267 27.72 26.5867 27.72 26.96C27.72 27.3067 27.72 27.6533 27.72 28V46.08C27.72 46.4 27.5733 46.6533 27.28 46.84C27.0133 47 26.5467 47.08 25.88 47.08H25.36ZM59.8709 55.28C59.3376 55.28 58.9243 55.2133 58.6309 55.08C58.3643 54.9733 58.2309 54.8133 58.2309 54.6C58.2309 54.52 58.2443 54.44 58.2709 54.36C58.2976 54.28 58.3509 54.1333 58.4309 53.92L62.1509 44.68L61.9509 47.8L54.5509 27.32C54.5243 27.24 54.4843 27.1467 54.4309 27.04C54.4043 26.9333 54.3909 26.8267 54.3909 26.72C54.3909 26.5067 54.5509 26.3333 54.8709 26.2C55.1909 26.0667 55.6709 26 56.3109 26H56.8709C57.3243 26 57.7109 26.0533 58.0309 26.16C58.3509 26.2667 58.5509 26.44 58.6309 26.68L63.4309 41.44H63.5909L68.4709 26.68C68.5776 26.44 68.7909 26.2667 69.1109 26.16C69.4309 26.0533 69.8309 26 70.3109 26H70.6709C71.3109 26 71.7643 26.0667 72.0309 26.2C72.2976 26.3333 72.4309 26.5067 72.4309 26.72C72.4309 26.8267 72.4176 26.9333 72.3909 27.04C72.3909 27.12 72.3643 27.2267 72.3109 27.36L62.2709 54.44C62.1643 54.76 61.9376 54.9733 61.5909 55.08C61.2443 55.2133 60.8176 55.28 60.3109 55.28H59.8709ZM92.0981 47.08C91.5915 47.08 91.1915 47.0133 90.8981 46.88C90.6048 46.7467 90.4181 46.52 90.3381 46.2L83.1381 20.28C83.1115 20.1733 83.0848 20.0667 83.0581 19.96C83.0315 19.8533 83.0181 19.7467 83.0181 19.64C83.0181 19.4267 83.1515 19.2533 83.4181 19.12C83.7115 18.9867 84.1515 18.92 84.7381 18.92H85.5381C85.9915 18.92 86.3781 18.9733 86.6981 19.08C87.0448 19.16 87.2581 19.36 87.3381 19.68L92.8981 42.64H93.0581L98.2581 19.88C98.3381 19.5067 98.5381 19.2533 98.8581 19.12C99.1781 18.9867 99.5915 18.92 100.098 18.92H101.338C101.845 18.92 102.271 19 102.618 19.16C102.991 19.2933 103.218 19.5333 103.298 19.88L108.538 42.64H108.698L114.258 19.68C114.311 19.3867 114.498 19.1867 114.818 19.08C115.138 18.9733 115.511 18.92 115.938 18.92H116.698C117.338 18.92 117.805 18.9867 118.098 19.12C118.391 19.2533 118.538 19.4267 118.538 19.64C118.538 19.7467 118.525 19.8533 118.498 19.96C118.471 20.0667 118.445 20.1733 118.418 20.28L111.218 46.2C111.138 46.52 110.951 46.7467 110.658 46.88C110.365 47.0133 109.951 47.08 109.418 47.08H107.778C107.271 47.08 106.845 47.0133 106.498 46.88C106.178 46.7467 105.978 46.52 105.898 46.2L100.818 24.44H100.658L95.6581 46.2C95.6048 46.52 95.4048 46.7467 95.0581 46.88C94.7115 47.0133 94.2848 47.08 93.7781 47.08H92.0981ZM129.223 47.28C125.996 47.28 123.556 46.4267 121.903 44.72C120.249 43.0133 119.423 40.32 119.423 36.64C119.423 34.24 119.796 32.24 120.543 30.64C121.316 29.04 122.409 27.84 123.823 27.04C125.236 26.2133 126.929 25.8 128.903 25.8C130.796 25.8 132.356 26.2267 133.583 27.08C134.809 27.9067 135.716 29.0933 136.303 30.64C136.889 32.1867 137.183 34.0133 137.183 36.12C137.183 36.3867 137.103 36.68 136.943 37C136.783 37.2933 136.569 37.5467 136.303 37.76C136.063 37.9733 135.809 38.08 135.543 38.08H123.703C123.756 40.1067 124.249 41.5867 125.183 42.52C126.143 43.4267 127.529 43.88 129.343 43.88C130.516 43.88 131.516 43.7333 132.343 43.44C133.196 43.1467 133.876 42.8667 134.383 42.6C134.916 42.3333 135.263 42.2 135.423 42.2C135.636 42.2 135.836 42.3333 136.023 42.6C136.209 42.8667 136.356 43.1867 136.463 43.56C136.596 43.9067 136.663 44.1867 136.663 44.4C136.663 44.6933 136.449 45 136.023 45.32C135.596 45.64 135.023 45.96 134.303 46.28C133.609 46.5733 132.823 46.8133 131.943 47C131.063 47.1867 130.156 47.28 129.223 47.28ZM123.663 34.88H133.103C133.103 32.9867 132.716 31.5733 131.943 30.64C131.169 29.68 130.049 29.2 128.583 29.2C127.596 29.2 126.743 29.4133 126.023 29.84C125.303 30.2667 124.729 30.8933 124.303 31.72C123.903 32.5467 123.689 33.6 123.663 34.88ZM152.025 47.28C150.905 47.28 149.825 47.0267 148.785 46.52C147.745 45.9867 146.839 45.24 146.065 44.28C146.039 44.5733 145.985 44.88 145.905 45.2C145.825 45.52 145.745 45.84 145.665 46.16C145.532 46.5333 145.332 46.7867 145.065 46.92C144.799 47.0267 144.479 47.08 144.105 47.08H143.825C143.239 47.08 142.812 47 142.545 46.84C142.305 46.6533 142.185 46.4 142.185 46.08V17.92C142.185 17.5733 142.319 17.32 142.585 17.16C142.852 16.9733 143.319 16.88 143.985 16.88H144.545C145.212 16.88 145.679 16.9733 145.945 17.16C146.212 17.32 146.345 17.5733 146.345 17.92V27.64C146.799 27.2933 147.279 26.9867 147.785 26.72C148.292 26.4267 148.852 26.2 149.465 26.04C150.079 25.88 150.759 25.8 151.505 25.8C153.985 25.8 155.959 26.7333 157.425 28.6C158.919 30.4667 159.665 33.1067 159.665 36.52C159.665 38.68 159.345 40.5733 158.705 42.2C158.092 43.8 157.212 45.0533 156.065 45.96C154.919 46.84 153.572 47.28 152.025 47.28ZM151.105 43.84C152.492 43.84 153.545 43.2 154.265 41.92C155.012 40.6133 155.385 38.7467 155.385 36.32C155.385 34.0267 154.985 32.2667 154.185 31.04C153.412 29.8133 152.212 29.2 150.585 29.2C149.812 29.2 149.052 29.3467 148.305 29.64C147.585 29.9067 146.932 30.28 146.345 30.76V41.16C147.039 41.9867 147.785 42.64 148.585 43.12C149.412 43.6 150.252 43.84 151.105 43.84ZM169.599 47.36C168.745 47.36 167.932 47.28 167.159 47.12C166.385 46.96 165.692 46.7467 165.079 46.48C164.492 46.2133 164.025 45.9333 163.679 45.64C163.332 45.3467 163.159 45.0533 163.159 44.76C163.159 44.5467 163.252 44.2667 163.439 43.92C163.625 43.5467 163.839 43.2133 164.079 42.92C164.319 42.6 164.545 42.44 164.759 42.44C164.892 42.44 165.145 42.5733 165.519 42.84C165.892 43.08 166.399 43.32 167.039 43.56C167.679 43.8 168.425 43.92 169.279 43.92C170.425 43.92 171.292 43.7067 171.879 43.28C172.465 42.8267 172.759 42.1733 172.759 41.32C172.759 40.7067 172.599 40.2 172.279 39.8C171.959 39.4 171.505 39.0667 170.919 38.8C170.359 38.5333 169.719 38.28 168.999 38.04C168.359 37.8 167.719 37.5333 167.079 37.24C166.439 36.9467 165.852 36.5733 165.319 36.12C164.812 35.6667 164.399 35.0933 164.079 34.4C163.785 33.7067 163.639 32.84 163.639 31.8C163.639 30.6 163.919 29.5467 164.479 28.64C165.065 27.7333 165.865 27.04 166.879 26.56C167.919 26.0533 169.105 25.8 170.439 25.8C171.105 25.8 171.759 25.84 172.399 25.92C173.039 26 173.625 26.1333 174.159 26.32C174.692 26.48 175.119 26.68 175.439 26.92C175.785 27.16 175.959 27.4133 175.959 27.68C175.959 27.92 175.879 28.24 175.719 28.64C175.559 29.0133 175.372 29.36 175.159 29.68C174.945 29.9733 174.732 30.12 174.519 30.12C174.385 30.12 174.012 29.96 173.399 29.64C172.812 29.32 171.985 29.16 170.919 29.16C170.012 29.16 169.252 29.36 168.639 29.76C168.052 30.1333 167.759 30.7067 167.759 31.48C167.759 31.96 167.865 32.3733 168.079 32.72C168.292 33.04 168.639 33.3333 169.119 33.6C169.599 33.84 170.212 34.0933 170.959 34.36C171.732 34.6267 172.479 34.9333 173.199 35.28C173.919 35.6267 174.559 36.0533 175.119 36.56C175.679 37.04 176.105 37.64 176.399 38.36C176.719 39.08 176.879 39.9333 176.879 40.92C176.879 42.1733 176.572 43.28 175.959 44.24C175.345 45.2 174.492 45.96 173.399 46.52C172.305 47.08 171.039 47.36 169.599 47.36ZM183.282 47.08C182.616 47.08 182.149 47 181.882 46.84C181.616 46.6533 181.482 46.4 181.482 46.08V27C181.482 26.68 181.616 26.44 181.882 26.28C182.149 26.0933 182.616 26 183.282 26H183.842C184.509 26 184.976 26.0933 185.242 26.28C185.509 26.44 185.642 26.68 185.642 27V46.08C185.642 46.4 185.509 46.6533 185.242 46.84C184.976 47 184.509 47.08 183.842 47.08H183.282ZM183.562 23.44C182.789 23.44 182.242 23.36 181.922 23.2C181.602 23.0133 181.442 22.76 181.442 22.44V19.84C181.442 19.52 181.602 19.28 181.922 19.12C182.242 18.9333 182.789 18.84 183.562 18.84C184.309 18.84 184.842 18.9333 185.162 19.12C185.482 19.28 185.642 19.52 185.642 19.84V22.44C185.642 22.76 185.482 23.0133 185.162 23.2C184.842 23.36 184.309 23.44 183.562 23.44ZM197.908 47.28C196.788 47.28 195.841 47.0667 195.068 46.64C194.321 46.2133 193.761 45.6 193.388 44.8C193.015 43.9733 192.828 42.96 192.828 41.76V29.48H191.028C190.415 29.48 190.108 29 190.108 28.04V27.52C190.108 26.56 190.415 26.08 191.028 26.08H192.828L193.348 22C193.401 21.6533 193.548 21.4 193.788 21.24C194.028 21.08 194.375 21 194.828 21H195.428C195.988 21 196.388 21.08 196.628 21.24C196.868 21.4 196.988 21.6533 196.988 22V26.08H200.108C200.721 26.08 201.028 26.56 201.028 27.52V28.04C201.028 29 200.721 29.48 200.108 29.48H196.988V41.68C196.988 42.4533 197.108 43 197.348 43.32C197.615 43.64 198.068 43.8 198.708 43.8C199.295 43.8 199.708 43.7333 199.948 43.6C200.215 43.4667 200.441 43.4 200.628 43.4C200.788 43.4 200.908 43.5067 200.988 43.72C201.095 43.9067 201.175 44.1467 201.228 44.44C201.308 44.7067 201.348 44.9733 201.348 45.24C201.375 45.48 201.388 45.6533 201.388 45.76C201.388 46.0533 201.188 46.32 200.788 46.56C200.415 46.7733 199.961 46.9467 199.428 47.08C198.895 47.2133 198.388 47.28 197.908 47.28ZM213.949 47.28C210.723 47.28 208.283 46.4267 206.629 44.72C204.976 43.0133 204.149 40.32 204.149 36.64C204.149 34.24 204.523 32.24 205.269 30.64C206.043 29.04 207.136 27.84 208.549 27.04C209.963 26.2133 211.656 25.8 213.629 25.8C215.523 25.8 217.083 26.2267 218.309 27.08C219.536 27.9067 220.443 29.0933 221.029 30.64C221.616 32.1867 221.909 34.0133 221.909 36.12C221.909 36.3867 221.829 36.68 221.669 37C221.509 37.2933 221.296 37.5467 221.029 37.76C220.789 37.9733 220.536 38.08 220.269 38.08H208.429C208.483 40.1067 208.976 41.5867 209.909 42.52C210.869 43.4267 212.256 43.88 214.069 43.88C215.243 43.88 216.243 43.7333 217.069 43.44C217.923 43.1467 218.603 42.8667 219.109 42.6C219.643 42.3333 219.989 42.2 220.149 42.2C220.363 42.2 220.563 42.3333 220.749 42.6C220.936 42.8667 221.083 43.1867 221.189 43.56C221.323 43.9067 221.389 44.1867 221.389 44.4C221.389 44.6933 221.176 45 220.749 45.32C220.323 45.64 219.749 45.96 219.029 46.28C218.336 46.5733 217.549 46.8133 216.669 47C215.789 47.1867 214.883 47.28 213.949 47.28ZM208.389 34.88H217.829C217.829 32.9867 217.443 31.5733 216.669 30.64C215.896 29.68 214.776 29.2 213.309 29.2C212.323 29.2 211.469 29.4133 210.749 29.84C210.029 30.2667 209.456 30.8933 209.029 31.72C208.629 32.5467 208.416 33.6 208.389 34.88Z" fill="white"/>
</svg>
