<svg height="100" viewBox="0 0 243 66" fill="none" xmlns="http://www.w3.org/2000/svg">
<rect width="243" height="66" rx="12" fill="#E310CB"/>
<path d="M25.36 47.08C24.72 47.08 24.2533 47 23.96 46.84C23.6667 46.6533 23.52 46.4 23.52 46.08V19.92C23.52 19.6 23.6667 19.36 23.96 19.2C24.2533 19.0133 24.72 18.92 25.36 18.92H26.96C27.5733 18.92 28.0667 18.9867 28.44 19.12C28.8133 19.2533 29.08 19.48 29.24 19.8L35.88 32.44C36.0667 32.7867 36.2533 33.1867 36.44 33.64C36.6533 34.0667 36.8133 34.4667 36.92 34.84C37.0533 34.44 37.24 34.0133 37.48 33.56C37.72 33.08 37.92 32.68 38.08 32.36L44.64 19.8C44.8267 19.48 45.0933 19.2533 45.44 19.12C45.7867 18.9867 46.2533 18.92 46.84 18.92H48.36C49.0267 18.92 49.4933 19.0133 49.76 19.2C50.0533 19.36 50.2 19.6 50.2 19.92V46.08C50.2 46.4 50.0533 46.6533 49.76 46.84C49.4933 47 49.0267 47.08 48.36 47.08H47.84C47.2 47.08 46.7333 47 46.44 46.84C46.1467 46.6533 46 46.4 46 46.08V28.2C46 27.8267 46 27.4667 46 27.12C46 26.7467 46 26.3867 46 26.04L45.84 26C45.7067 26.32 45.56 26.6267 45.4 26.92C45.24 27.1867 45.0933 27.4667 44.96 27.76L39.28 38.64C39.0933 38.9867 38.8533 39.2267 38.56 39.36C38.2667 39.4667 37.84 39.52 37.28 39.52H36.56C36 39.52 35.5733 39.4667 35.28 39.36C34.9867 39.2267 34.7333 38.9867 34.52 38.64L28.76 27.56C28.6267 27.2933 28.48 27.0133 28.32 26.72C28.16 26.4267 28.0133 26.1333 27.88 25.84L27.72 25.88C27.72 26.2267 27.72 26.5867 27.72 26.96C27.72 27.3067 27.72 27.6533 27.72 28V46.08C27.72 46.4 27.5733 46.6533 27.28 46.84C27.0133 47 26.5467 47.08 25.88 47.08H25.36ZM59.8709 55.28C59.3376 55.28 58.9243 55.2133 58.6309 55.08C58.3643 54.9733 58.2309 54.8133 58.2309 54.6C58.2309 54.52 58.2443 54.44 58.2709 54.36C58.2976 54.28 58.3509 54.1333 58.4309 53.92L62.1509 44.68L61.9509 47.8L54.5509 27.32C54.5243 27.24 54.4843 27.1467 54.4309 27.04C54.4043 26.9333 54.3909 26.8267 54.3909 26.72C54.3909 26.5067 54.5509 26.3333 54.8709 26.2C55.1909 26.0667 55.6709 26 56.3109 26H56.8709C57.3243 26 57.7109 26.0533 58.0309 26.16C58.3509 26.2667 58.5509 26.44 58.6309 26.68L63.4309 41.44H63.5909L68.4709 26.68C68.5776 26.44 68.7909 26.2667 69.1109 26.16C69.4309 26.0533 69.8309 26 70.3109 26H70.6709C71.3109 26 71.7643 26.0667 72.0309 26.2C72.2976 26.3333 72.4309 26.5067 72.4309 26.72C72.4309 26.8267 72.4176 26.9333 72.3909 27.04C72.3909 27.12 72.3643 27.2267 72.3109 27.36L62.2709 54.44C62.1643 54.76 61.9376 54.9733 61.5909 55.08C61.2443 55.2133 60.8176 55.28 60.3109 55.28H59.8709ZM87.9381 47.08C87.2981 47.08 86.8315 47 86.5381 46.84C86.2448 46.6533 86.0981 46.4 86.0981 46.08V20.32C86.0981 19.44 86.5381 19 87.4181 19H95.2981C98.4448 19 100.791 19.6667 102.338 21C103.885 22.3333 104.658 24.2933 104.658 26.88C104.658 28.0533 104.458 29.0933 104.058 30C103.685 30.9067 103.125 31.6667 102.378 32.28C101.658 32.8667 100.765 33.28 99.6981 33.52V33.68C100.418 33.8933 101.031 34.3467 101.538 35.04C102.071 35.7333 102.538 36.6 102.938 37.64L106.098 45.56C106.178 45.72 106.231 45.88 106.258 46.04C106.285 46.1733 106.298 46.28 106.298 46.36C106.298 46.6 106.151 46.7867 105.858 46.92C105.565 47.0267 105.085 47.08 104.418 47.08H103.658C103.205 47.08 102.818 47.0133 102.498 46.88C102.178 46.7467 101.951 46.5467 101.818 46.28L98.6181 38.08C98.3248 37.36 97.9915 36.7867 97.6181 36.36C97.2448 35.9067 96.7648 35.5867 96.1781 35.4C95.5915 35.2133 94.8448 35.12 93.9381 35.12H90.4581V46.08C90.4581 46.4 90.3115 46.6533 90.0181 46.84C89.7515 47 89.2715 47.08 88.5781 47.08H87.9381ZM90.4581 31.56H95.3781C97.1115 31.56 98.3515 31.2267 99.0981 30.56C99.8715 29.8667 100.258 28.76 100.258 27.24C100.258 25.64 99.8715 24.48 99.0981 23.76C98.3515 23.04 97.1115 22.68 95.3781 22.68H90.4581V31.56ZM118.832 47.28C115.606 47.28 113.166 46.4267 111.512 44.72C109.859 43.0133 109.032 40.32 109.032 36.64C109.032 34.24 109.406 32.24 110.152 30.64C110.926 29.04 112.019 27.84 113.432 27.04C114.846 26.2133 116.539 25.8 118.512 25.8C120.406 25.8 121.966 26.2267 123.192 27.08C124.419 27.9067 125.326 29.0933 125.912 30.64C126.499 32.1867 126.792 34.0133 126.792 36.12C126.792 36.3867 126.712 36.68 126.552 37C126.392 37.2933 126.179 37.5467 125.912 37.76C125.672 37.9733 125.419 38.08 125.152 38.08H113.312C113.366 40.1067 113.859 41.5867 114.792 42.52C115.752 43.4267 117.139 43.88 118.952 43.88C120.126 43.88 121.126 43.7333 121.952 43.44C122.806 43.1467 123.486 42.8667 123.992 42.6C124.526 42.3333 124.872 42.2 125.032 42.2C125.246 42.2 125.446 42.3333 125.632 42.6C125.819 42.8667 125.966 43.1867 126.072 43.56C126.206 43.9067 126.272 44.1867 126.272 44.4C126.272 44.6933 126.059 45 125.632 45.32C125.206 45.64 124.632 45.96 123.912 46.28C123.219 46.5733 122.432 46.8133 121.552 47C120.672 47.1867 119.766 47.28 118.832 47.28ZM113.272 34.88H122.712C122.712 32.9867 122.326 31.5733 121.552 30.64C120.779 29.68 119.659 29.2 118.192 29.2C117.206 29.2 116.352 29.4133 115.632 29.84C114.912 30.2667 114.339 30.8933 113.912 31.72C113.512 32.5467 113.299 33.6 113.272 34.88ZM136.435 47.36C135.581 47.36 134.768 47.28 133.995 47.12C133.221 46.96 132.528 46.7467 131.915 46.48C131.328 46.2133 130.861 45.9333 130.515 45.64C130.168 45.3467 129.995 45.0533 129.995 44.76C129.995 44.5467 130.088 44.2667 130.275 43.92C130.461 43.5467 130.675 43.2133 130.915 42.92C131.155 42.6 131.381 42.44 131.595 42.44C131.728 42.44 131.981 42.5733 132.355 42.84C132.728 43.08 133.235 43.32 133.875 43.56C134.515 43.8 135.261 43.92 136.115 43.92C137.261 43.92 138.128 43.7067 138.715 43.28C139.301 42.8267 139.595 42.1733 139.595 41.32C139.595 40.7067 139.435 40.2 139.115 39.8C138.795 39.4 138.341 39.0667 137.755 38.8C137.195 38.5333 136.555 38.28 135.835 38.04C135.195 37.8 134.555 37.5333 133.915 37.24C133.275 36.9467 132.688 36.5733 132.155 36.12C131.648 35.6667 131.235 35.0933 130.915 34.4C130.621 33.7067 130.475 32.84 130.475 31.8C130.475 30.6 130.755 29.5467 131.315 28.64C131.901 27.7333 132.701 27.04 133.715 26.56C134.755 26.0533 135.941 25.8 137.275 25.8C137.941 25.8 138.595 25.84 139.235 25.92C139.875 26 140.461 26.1333 140.995 26.32C141.528 26.48 141.955 26.68 142.275 26.92C142.621 27.16 142.795 27.4133 142.795 27.68C142.795 27.92 142.715 28.24 142.555 28.64C142.395 29.0133 142.208 29.36 141.995 29.68C141.781 29.9733 141.568 30.12 141.355 30.12C141.221 30.12 140.848 29.96 140.235 29.64C139.648 29.32 138.821 29.16 137.755 29.16C136.848 29.16 136.088 29.36 135.475 29.76C134.888 30.1333 134.595 30.7067 134.595 31.48C134.595 31.96 134.701 32.3733 134.915 32.72C135.128 33.04 135.475 33.3333 135.955 33.6C136.435 33.84 137.048 34.0933 137.795 34.36C138.568 34.6267 139.315 34.9333 140.035 35.28C140.755 35.6267 141.395 36.0533 141.955 36.56C142.515 37.04 142.941 37.64 143.235 38.36C143.555 39.08 143.715 39.9333 143.715 40.92C143.715 42.1733 143.408 43.28 142.795 44.24C142.181 45.2 141.328 45.96 140.235 46.52C139.141 47.08 137.875 47.36 136.435 47.36ZM153.958 47.28C151.985 47.28 150.451 46.7333 149.358 45.64C148.291 44.52 147.758 42.9467 147.758 40.92V27C147.758 26.68 147.891 26.44 148.158 26.28C148.425 26.0933 148.891 26 149.558 26H150.118C150.785 26 151.251 26.0933 151.518 26.28C151.785 26.44 151.918 26.68 151.918 27V40.44C151.918 41.5067 152.198 42.3333 152.758 42.92C153.318 43.48 154.171 43.76 155.318 43.76C155.931 43.76 156.518 43.6533 157.078 43.44C157.665 43.2267 158.211 42.92 158.718 42.52C159.225 42.12 159.638 41.6533 159.958 41.12V27C159.958 26.68 160.091 26.44 160.358 26.28C160.625 26.0933 161.091 26 161.758 26H162.318C162.985 26 163.451 26.0933 163.718 26.28C163.985 26.44 164.118 26.68 164.118 27V40.72C164.118 41.84 164.145 42.7467 164.198 43.44C164.278 44.1333 164.345 44.68 164.398 45.08C164.478 45.48 164.518 45.7867 164.518 46C164.518 46.1867 164.398 46.3467 164.158 46.48C163.945 46.6133 163.678 46.72 163.358 46.8C163.038 46.8533 162.705 46.9067 162.358 46.96C162.038 46.9867 161.771 47 161.558 47C161.291 47 161.078 46.92 160.918 46.76C160.785 46.6 160.665 46.32 160.558 45.92C160.451 45.4933 160.331 44.9333 160.198 44.24C159.718 44.8267 159.131 45.3467 158.438 45.8C157.771 46.2533 157.051 46.6133 156.278 46.88C155.531 47.1467 154.758 47.28 153.958 47.28ZM172.384 47.08C171.717 47.08 171.25 47 170.984 46.84C170.717 46.6533 170.584 46.4 170.584 46.08V32.36C170.584 31.24 170.544 30.3333 170.464 29.64C170.41 28.9467 170.344 28.4 170.264 28C170.21 27.6 170.184 27.2933 170.184 27.08C170.184 26.92 170.29 26.7733 170.504 26.64C170.744 26.5067 171.024 26.4 171.344 26.32C171.664 26.24 171.984 26.1867 172.304 26.16C172.65 26.1333 172.93 26.12 173.144 26.12C173.41 26.12 173.61 26.2 173.744 26.36C173.904 26.52 174.037 26.8 174.144 27.2C174.25 27.5733 174.37 28.12 174.504 28.84C174.984 28.2267 175.53 27.7067 176.144 27.28C176.784 26.8267 177.464 26.4667 178.184 26.2C178.93 25.9333 179.69 25.8 180.464 25.8C181.397 25.8 182.224 25.9333 182.944 26.2C183.69 26.44 184.33 26.8133 184.864 27.32C185.424 27.8 185.85 28.4133 186.144 29.16C186.624 28.4933 187.184 27.92 187.824 27.44C188.49 26.9333 189.21 26.5333 189.984 26.24C190.757 25.9467 191.544 25.8 192.344 25.8C193.677 25.8 194.81 26.0533 195.744 26.56C196.677 27.0667 197.384 27.8 197.864 28.76C198.344 29.72 198.584 30.8933 198.584 32.28V46.08C198.584 46.4 198.45 46.6533 198.184 46.84C197.917 47 197.45 47.08 196.784 47.08H196.224C195.557 47.08 195.09 47 194.824 46.84C194.557 46.6533 194.424 46.4 194.424 46.08V32.76C194.424 31.64 194.144 30.7867 193.584 30.2C193.024 29.6133 192.157 29.32 190.984 29.32C190.584 29.32 190.17 29.3867 189.744 29.52C189.317 29.6267 188.904 29.8133 188.504 30.08C188.13 30.3467 187.757 30.6667 187.384 31.04C187.01 31.3867 186.664 31.8133 186.344 32.32V30.44C186.504 30.7333 186.597 31.04 186.624 31.36C186.677 31.68 186.704 32 186.704 32.32V46.08C186.704 46.4 186.557 46.6533 186.264 46.84C185.997 47 185.53 47.08 184.864 47.08H184.344C183.677 47.08 183.197 47 182.904 46.84C182.637 46.6533 182.504 46.4 182.504 46.08V32.76C182.504 31.64 182.224 30.7867 181.664 30.2C181.104 29.6133 180.25 29.32 179.104 29.32C178.544 29.32 177.984 29.4267 177.424 29.64C176.89 29.8533 176.384 30.16 175.904 30.56C175.45 30.96 175.064 31.4133 174.744 31.92V46.08C174.744 46.4 174.61 46.6533 174.344 46.84C174.077 47 173.61 47.08 172.944 47.08H172.384ZM213.09 47.28C209.863 47.28 207.423 46.4267 205.77 44.72C204.117 43.0133 203.29 40.32 203.29 36.64C203.29 34.24 203.663 32.24 204.41 30.64C205.183 29.04 206.277 27.84 207.69 27.04C209.103 26.2133 210.797 25.8 212.77 25.8C214.663 25.8 216.223 26.2267 217.45 27.08C218.677 27.9067 219.583 29.0933 220.17 30.64C220.757 32.1867 221.05 34.0133 221.05 36.12C221.05 36.3867 220.97 36.68 220.81 37C220.65 37.2933 220.437 37.5467 220.17 37.76C219.93 37.9733 219.677 38.08 219.41 38.08H207.57C207.623 40.1067 208.117 41.5867 209.05 42.52C210.01 43.4267 211.397 43.88 213.21 43.88C214.383 43.88 215.383 43.7333 216.21 43.44C217.063 43.1467 217.743 42.8667 218.25 42.6C218.783 42.3333 219.13 42.2 219.29 42.2C219.503 42.2 219.703 42.3333 219.89 42.6C220.077 42.8667 220.223 43.1867 220.33 43.56C220.463 43.9067 220.53 44.1867 220.53 44.4C220.53 44.6933 220.317 45 219.89 45.32C219.463 45.64 218.89 45.96 218.17 46.28C217.477 46.5733 216.69 46.8133 215.81 47C214.93 47.1867 214.023 47.28 213.09 47.28ZM207.53 34.88H216.97C216.97 32.9867 216.583 31.5733 215.81 30.64C215.037 29.68 213.917 29.2 212.45 29.2C211.463 29.2 210.61 29.4133 209.89 29.84C209.17 30.2667 208.597 30.8933 208.17 31.72C207.77 32.5467 207.557 33.6 207.53 34.88Z" fill="white"/>
</svg>
