<svg height="61" viewBox="0 0 203 61" fill="none" xmlns="http://www.w3.org/2000/svg">
<rect width="203" height="61" rx="12" fill="#E310CB"/>
<path d="M14.824 43.072C14.248 43.072 13.828 43 13.564 42.856C13.3 42.688 13.168 42.46 13.168 42.172V18.628C13.168 18.34 13.3 18.124 13.564 17.98C13.828 17.812 14.248 17.728 14.824 17.728H16.264C16.816 17.728 17.26 17.788 17.596 17.908C17.932 18.028 18.172 18.232 18.316 18.52L24.292 29.896C24.46 30.208 24.628 30.568 24.796 30.976C24.988 31.36 25.132 31.72 25.228 32.056C25.348 31.696 25.516 31.312 25.732 30.904C25.948 30.472 26.128 30.112 26.272 29.824L32.176 18.52C32.344 18.232 32.584 18.028 32.896 17.908C33.208 17.788 33.628 17.728 34.156 17.728H35.524C36.124 17.728 36.544 17.812 36.784 17.98C37.048 18.124 37.18 18.34 37.18 18.628V42.172C37.18 42.46 37.048 42.688 36.784 42.856C36.544 43 36.124 43.072 35.524 43.072H35.056C34.48 43.072 34.06 43 33.796 42.856C33.532 42.688 33.4 42.46 33.4 42.172V26.08C33.4 25.744 33.4 25.42 33.4 25.108C33.4 24.772 33.4 24.448 33.4 24.136L33.256 24.1C33.136 24.388 33.004 24.664 32.86 24.928C32.716 25.168 32.584 25.42 32.464 25.684L27.352 35.476C27.184 35.788 26.968 36.004 26.704 36.124C26.44 36.22 26.056 36.268 25.552 36.268H24.904C24.4 36.268 24.016 36.22 23.752 36.124C23.488 36.004 23.26 35.788 23.068 35.476L17.884 25.504C17.764 25.264 17.632 25.012 17.488 24.748C17.344 24.484 17.212 24.22 17.092 23.956L16.948 23.992C16.948 24.304 16.948 24.628 16.948 24.964C16.948 25.276 16.948 25.588 16.948 25.9V42.172C16.948 42.46 16.816 42.688 16.552 42.856C16.312 43 15.892 43.072 15.292 43.072H14.824ZM45.8838 50.452C45.4038 50.452 45.0318 50.392 44.7678 50.272C44.5278 50.176 44.4078 50.032 44.4078 49.84C44.4078 49.768 44.4198 49.696 44.4438 49.624C44.4678 49.552 44.5158 49.42 44.5878 49.228L47.9358 40.912L47.7558 43.72L41.0958 25.288C41.0718 25.216 41.0358 25.132 40.9878 25.036C40.9638 24.94 40.9518 24.844 40.9518 24.748C40.9518 24.556 41.0958 24.4 41.3838 24.28C41.6718 24.16 42.1038 24.1 42.6798 24.1H43.1838C43.5918 24.1 43.9398 24.148 44.2278 24.244C44.5158 24.34 44.6958 24.496 44.7678 24.712L49.0878 37.996H49.2318L53.6238 24.712C53.7198 24.496 53.9118 24.34 54.1998 24.244C54.4878 24.148 54.8478 24.1 55.2798 24.1H55.6038C56.1798 24.1 56.5878 24.16 56.8278 24.28C57.0678 24.4 57.1878 24.556 57.1878 24.748C57.1878 24.844 57.1758 24.94 57.1518 25.036C57.1518 25.108 57.1278 25.204 57.0798 25.324L48.0438 49.696C47.9478 49.984 47.7438 50.176 47.4318 50.272C47.1198 50.392 46.7358 50.452 46.2798 50.452H45.8838ZM71.1443 43.072C70.5683 43.072 70.1483 43 69.8843 42.856C69.6203 42.688 69.4883 42.46 69.4883 42.172V18.988C69.4883 18.196 69.8843 17.8 70.6763 17.8H77.7683C80.6003 17.8 82.7123 18.4 84.1043 19.6C85.4963 20.8 86.1923 22.564 86.1923 24.892C86.1923 25.948 86.0123 26.884 85.6523 27.7C85.3163 28.516 84.8123 29.2 84.1403 29.752C83.4923 30.28 82.6883 30.652 81.7283 30.868V31.012C82.3763 31.204 82.9283 31.612 83.3843 32.236C83.8643 32.86 84.2843 33.64 84.6443 34.576L87.4883 41.704C87.5603 41.848 87.6083 41.992 87.6323 42.136C87.6563 42.256 87.6683 42.352 87.6683 42.424C87.6683 42.64 87.5363 42.808 87.2723 42.928C87.0083 43.024 86.5763 43.072 85.9763 43.072H85.2923C84.8843 43.072 84.5363 43.012 84.2483 42.892C83.9603 42.772 83.7563 42.592 83.6363 42.352L80.7563 34.972C80.4923 34.324 80.1923 33.808 79.8563 33.424C79.5203 33.016 79.0883 32.728 78.5603 32.56C78.0323 32.392 77.3603 32.308 76.5443 32.308H73.4123V42.172C73.4123 42.46 73.2803 42.688 73.0163 42.856C72.7763 43 72.3443 43.072 71.7203 43.072H71.1443ZM73.4123 29.104H77.8403C79.4003 29.104 80.5163 28.804 81.1883 28.204C81.8843 27.58 82.2323 26.584 82.2323 25.216C82.2323 23.776 81.8843 22.732 81.1883 22.084C80.5163 21.436 79.4003 21.112 77.8403 21.112H73.4123V29.104ZM98.949 43.252C96.045 43.252 93.849 42.484 92.361 40.948C90.873 39.412 90.129 36.988 90.129 33.676C90.129 31.516 90.465 29.716 91.137 28.276C91.833 26.836 92.817 25.756 94.089 25.036C95.361 24.292 96.885 23.92 98.661 23.92C100.365 23.92 101.769 24.304 102.873 25.072C103.977 25.816 104.793 26.884 105.321 28.276C105.849 29.668 106.113 31.312 106.113 33.208C106.113 33.448 106.041 33.712 105.897 34C105.753 34.264 105.561 34.492 105.321 34.684C105.105 34.876 104.877 34.972 104.637 34.972H93.981C94.029 36.796 94.473 38.128 95.313 38.968C96.177 39.784 97.425 40.192 99.057 40.192C100.113 40.192 101.013 40.06 101.757 39.796C102.525 39.532 103.137 39.28 103.593 39.04C104.073 38.8 104.385 38.68 104.529 38.68C104.721 38.68 104.901 38.8 105.069 39.04C105.237 39.28 105.369 39.568 105.465 39.904C105.585 40.216 105.645 40.468 105.645 40.66C105.645 40.924 105.453 41.2 105.069 41.488C104.685 41.776 104.169 42.064 103.521 42.352C102.897 42.616 102.189 42.832 101.397 43C100.605 43.168 99.789 43.252 98.949 43.252ZM93.945 32.092H102.441C102.441 30.388 102.093 29.116 101.397 28.276C100.701 27.412 99.693 26.98 98.373 26.98C97.485 26.98 96.717 27.172 96.069 27.556C95.421 27.94 94.905 28.504 94.521 29.248C94.161 29.992 93.969 30.94 93.945 32.092ZM114.791 43.324C114.023 43.324 113.291 43.252 112.595 43.108C111.899 42.964 111.275 42.772 110.723 42.532C110.195 42.292 109.775 42.04 109.463 41.776C109.151 41.512 108.995 41.248 108.995 40.984C108.995 40.792 109.079 40.54 109.247 40.228C109.415 39.892 109.607 39.592 109.823 39.328C110.039 39.04 110.243 38.896 110.435 38.896C110.555 38.896 110.783 39.016 111.119 39.256C111.455 39.472 111.911 39.688 112.487 39.904C113.063 40.12 113.735 40.228 114.503 40.228C115.535 40.228 116.315 40.036 116.843 39.652C117.371 39.244 117.635 38.656 117.635 37.888C117.635 37.336 117.491 36.88 117.203 36.52C116.915 36.16 116.507 35.86 115.979 35.62C115.475 35.38 114.899 35.152 114.251 34.936C113.675 34.72 113.099 34.48 112.523 34.216C111.947 33.952 111.419 33.616 110.939 33.208C110.483 32.8 110.111 32.284 109.823 31.66C109.559 31.036 109.427 30.256 109.427 29.32C109.427 28.24 109.679 27.292 110.183 26.476C110.711 25.66 111.431 25.036 112.343 24.604C113.279 24.148 114.347 23.92 115.547 23.92C116.147 23.92 116.735 23.956 117.311 24.028C117.887 24.1 118.415 24.22 118.895 24.388C119.375 24.532 119.759 24.712 120.047 24.928C120.359 25.144 120.515 25.372 120.515 25.612C120.515 25.828 120.443 26.116 120.299 26.476C120.155 26.812 119.987 27.124 119.795 27.412C119.603 27.676 119.411 27.808 119.219 27.808C119.099 27.808 118.763 27.664 118.211 27.376C117.683 27.088 116.939 26.944 115.979 26.944C115.163 26.944 114.479 27.124 113.927 27.484C113.399 27.82 113.135 28.336 113.135 29.032C113.135 29.464 113.231 29.836 113.423 30.148C113.615 30.436 113.927 30.7 114.359 30.94C114.791 31.156 115.343 31.384 116.015 31.624C116.711 31.864 117.383 32.14 118.031 32.452C118.679 32.764 119.255 33.148 119.759 33.604C120.263 34.036 120.647 34.576 120.911 35.224C121.199 35.872 121.343 36.64 121.343 37.528C121.343 38.656 121.067 39.652 120.515 40.516C119.963 41.38 119.195 42.064 118.211 42.568C117.227 43.072 116.087 43.324 114.791 43.324ZM130.562 43.252C128.786 43.252 127.406 42.76 126.422 41.776C125.462 40.768 124.982 39.352 124.982 37.528V25C124.982 24.712 125.102 24.496 125.342 24.352C125.582 24.184 126.002 24.1 126.602 24.1H127.106C127.706 24.1 128.126 24.184 128.366 24.352C128.606 24.496 128.726 24.712 128.726 25V37.096C128.726 38.056 128.978 38.8 129.482 39.328C129.986 39.832 130.754 40.084 131.786 40.084C132.338 40.084 132.866 39.988 133.37 39.796C133.898 39.604 134.39 39.328 134.846 38.968C135.302 38.608 135.674 38.188 135.962 37.708V25C135.962 24.712 136.082 24.496 136.322 24.352C136.562 24.184 136.982 24.1 137.582 24.1H138.086C138.686 24.1 139.106 24.184 139.346 24.352C139.586 24.496 139.706 24.712 139.706 25V37.348C139.706 38.356 139.73 39.172 139.778 39.796C139.85 40.42 139.91 40.912 139.958 41.272C140.03 41.632 140.066 41.908 140.066 42.1C140.066 42.268 139.958 42.412 139.742 42.532C139.55 42.652 139.31 42.748 139.022 42.82C138.734 42.868 138.434 42.916 138.122 42.964C137.834 42.988 137.594 43 137.402 43C137.162 43 136.97 42.928 136.826 42.784C136.706 42.64 136.598 42.388 136.502 42.028C136.406 41.644 136.298 41.14 136.178 40.516C135.746 41.044 135.218 41.512 134.594 41.92C133.994 42.328 133.346 42.652 132.65 42.892C131.978 43.132 131.282 43.252 130.562 43.252ZM147.145 43.072C146.545 43.072 146.125 43 145.885 42.856C145.645 42.688 145.525 42.46 145.525 42.172V29.824C145.525 28.816 145.489 28 145.417 27.376C145.369 26.752 145.309 26.26 145.237 25.9C145.189 25.54 145.165 25.264 145.165 25.072C145.165 24.928 145.261 24.796 145.453 24.676C145.669 24.556 145.921 24.46 146.209 24.388C146.497 24.316 146.785 24.268 147.073 24.244C147.385 24.22 147.637 24.208 147.829 24.208C148.069 24.208 148.249 24.28 148.369 24.424C148.513 24.568 148.633 24.82 148.729 25.18C148.825 25.516 148.933 26.008 149.053 26.656C149.485 26.104 149.977 25.636 150.529 25.252C151.105 24.844 151.717 24.52 152.365 24.28C153.037 24.04 153.721 23.92 154.417 23.92C155.257 23.92 156.001 24.04 156.649 24.28C157.321 24.496 157.897 24.832 158.377 25.288C158.881 25.72 159.265 26.272 159.529 26.944C159.961 26.344 160.465 25.828 161.041 25.396C161.641 24.94 162.289 24.58 162.985 24.316C163.681 24.052 164.389 23.92 165.109 23.92C166.309 23.92 167.329 24.148 168.169 24.604C169.009 25.06 169.645 25.72 170.077 26.584C170.509 27.448 170.725 28.504 170.725 29.752V42.172C170.725 42.46 170.605 42.688 170.365 42.856C170.125 43 169.705 43.072 169.105 43.072H168.601C168.001 43.072 167.581 43 167.341 42.856C167.101 42.688 166.981 42.46 166.981 42.172V30.184C166.981 29.176 166.729 28.408 166.225 27.88C165.721 27.352 164.941 27.088 163.885 27.088C163.525 27.088 163.153 27.148 162.769 27.268C162.385 27.364 162.013 27.532 161.653 27.772C161.317 28.012 160.981 28.3 160.645 28.636C160.309 28.948 159.997 29.332 159.709 29.788V28.096C159.853 28.36 159.937 28.636 159.961 28.924C160.009 29.212 160.033 29.5 160.033 29.788V42.172C160.033 42.46 159.901 42.688 159.637 42.856C159.397 43 158.977 43.072 158.377 43.072H157.909C157.309 43.072 156.877 43 156.613 42.856C156.373 42.688 156.253 42.46 156.253 42.172V30.184C156.253 29.176 156.001 28.408 155.497 27.88C154.993 27.352 154.225 27.088 153.193 27.088C152.689 27.088 152.185 27.184 151.681 27.376C151.201 27.568 150.745 27.844 150.313 28.204C149.905 28.564 149.557 28.972 149.269 29.428V42.172C149.269 42.46 149.149 42.688 148.909 42.856C148.669 43 148.249 43.072 147.649 43.072H147.145ZM183.781 43.252C180.877 43.252 178.681 42.484 177.193 40.948C175.705 39.412 174.961 36.988 174.961 33.676C174.961 31.516 175.297 29.716 175.969 28.276C176.665 26.836 177.649 25.756 178.921 25.036C180.193 24.292 181.717 23.92 183.493 23.92C185.197 23.92 186.601 24.304 187.705 25.072C188.809 25.816 189.625 26.884 190.153 28.276C190.681 29.668 190.945 31.312 190.945 33.208C190.945 33.448 190.873 33.712 190.729 34C190.585 34.264 190.393 34.492 190.153 34.684C189.937 34.876 189.709 34.972 189.469 34.972H178.813C178.861 36.796 179.305 38.128 180.145 38.968C181.009 39.784 182.257 40.192 183.889 40.192C184.945 40.192 185.845 40.06 186.589 39.796C187.357 39.532 187.969 39.28 188.425 39.04C188.905 38.8 189.217 38.68 189.361 38.68C189.553 38.68 189.733 38.8 189.901 39.04C190.069 39.28 190.201 39.568 190.297 39.904C190.417 40.216 190.477 40.468 190.477 40.66C190.477 40.924 190.285 41.2 189.901 41.488C189.517 41.776 189.001 42.064 188.353 42.352C187.729 42.616 187.021 42.832 186.229 43C185.437 43.168 184.621 43.252 183.781 43.252ZM178.777 32.092H187.273C187.273 30.388 186.925 29.116 186.229 28.276C185.533 27.412 184.525 26.98 183.205 26.98C182.317 26.98 181.549 27.172 180.901 27.556C180.253 27.94 179.737 28.504 179.353 29.248C178.993 29.992 178.801 30.94 178.777 32.092Z" fill="white"/>
</svg>
